<svg width="38" height="24" viewBox="0 0 38 24" fill="none" xmlns="http://www.w3.org/2000/svg">
<path d="M9.196 23.448C7.44667 23.448 5.932 23.1387 4.652 22.52C3.39333 21.9013 2.42267 21.0267 1.74 19.896C1.05733 18.7653 0.716 17.4533 0.716 15.96V15.64H4.876V15.928C4.876 16.9947 5.228 17.912 5.932 18.68C6.65733 19.4267 7.724 19.8 9.132 19.8C10.54 19.8 11.6173 19.4267 12.364 18.68C13.132 17.912 13.516 16.92 13.516 15.704V15.384C13.516 14.1893 13.132 13.24 12.364 12.536C11.6173 11.832 10.6787 11.48 9.548 11.48C8.92933 11.48 8.41733 11.5653 8.012 11.736C7.60667 11.9067 7.276 12.12 7.02 12.376C6.764 12.632 6.55067 12.888 6.38 13.144H1.42V0.599998H16.716V4.312H5.516V9.784H6.092C6.30533 9.50667 6.59333 9.24 6.956 8.984C7.31867 8.728 7.788 8.51467 8.364 8.344C8.94 8.17333 9.62267 8.088 10.412 8.088C11.7347 8.088 12.94 8.36533 14.028 8.92C15.116 9.47467 15.98 10.296 16.62 11.384C17.2813 12.4507 17.612 13.7733 17.612 15.352V15.736C17.612 17.3147 17.2707 18.68 16.588 19.832C15.9267 20.984 14.9667 21.88 13.708 22.52C12.4493 23.1387 10.9453 23.448 9.196 23.448ZM29.0555 23.448C26.4102 23.448 24.2875 22.7227 22.6875 21.272C21.0875 19.8 20.2875 17.5813 20.2875 14.616V8.984C20.2875 6.104 21.0875 3.91733 22.6875 2.424C24.2875 0.909332 26.4102 0.151999 29.0555 0.151999C31.7222 0.151999 33.8448 0.909332 35.4235 2.424C37.0235 3.91733 37.8235 6.104 37.8235 8.984V14.616C37.8235 17.5813 37.0235 19.8 35.4235 21.272C33.8448 22.7227 31.7222 23.448 29.0555 23.448ZM29.0555 19.8C30.6555 19.8 31.8288 19.3627 32.5755 18.488C33.3435 17.6133 33.7275 16.3653 33.7275 14.744V8.792C33.7275 7.14933 33.3008 5.912 32.4475 5.08C31.6155 4.22667 30.4848 3.8 29.0555 3.8C27.5835 3.8 26.4315 4.23733 25.5995 5.112C24.7888 5.98667 24.3835 7.21333 24.3835 8.792V14.744C24.3835 16.4293 24.7675 17.6987 25.5355 18.552C26.3248 19.384 27.4982 19.8 29.0555 19.8Z" fill="#2EFCA8"/>
</svg>
