<svg width="26" height="17" viewBox="0 0 26 17" fill="none" xmlns="http://www.w3.org/2000/svg">
<path d="M1.20717 8.35836L0.820883 8.0409H0.820883L1.20717 8.35836ZM24.7591 8.35836L25.1454 8.0409V8.0409L24.7591 8.35836ZM24.7109 9.55234L25.071 9.89931H25.071L24.7109 9.55234ZM1.25532 9.55234L1.61533 9.20537H1.61533L1.25532 9.55234ZM9.91753 11.7473L10.295 11.4194L10.2887 11.4121L10.2821 11.4051L9.91753 11.7473ZM13.2861 13.2451L13.2957 12.7452L13.2862 12.745L13.2768 12.7452L13.2861 13.2451ZM12.9831 0.880981C10.0534 0.880981 7.37695 2.2407 5.27294 3.78858C3.16307 5.34077 1.57811 7.1195 0.820883 8.0409L1.59346 8.67582C2.32283 7.78832 3.848 6.07835 5.86553 4.59408C7.88894 3.1055 10.3572 1.88098 12.9831 1.88098V0.880981ZM25.1454 8.0409C24.3882 7.1195 22.8032 5.34078 20.6933 3.78858C18.5893 2.2407 15.9129 0.880981 12.9831 0.880981V1.88098C15.6091 1.88098 18.0773 3.1055 20.1007 4.59408C22.1183 6.07835 23.6434 7.78832 24.3728 8.67582L25.1454 8.0409ZM25.071 9.89931C25.5674 9.38421 25.6008 8.5951 25.1454 8.0409L24.3728 8.67582C24.5048 8.8364 24.4965 9.0543 24.3509 9.20537L25.071 9.89931ZM12.9831 16.119C15.8123 16.119 18.4496 14.9539 20.5534 13.6135C22.6619 12.27 24.2767 10.7234 25.071 9.89931L24.3509 9.20537C23.5874 9.99757 22.034 11.4843 20.016 12.7701C17.9932 14.059 15.5455 15.119 12.9831 15.119V16.119ZM0.8953 9.89931C1.68954 10.7234 3.30433 12.27 5.4129 13.6135C7.51665 14.9539 10.154 16.119 12.9831 16.119V15.119C10.4208 15.119 7.9731 14.059 5.95024 12.7701C3.93221 11.4843 2.37883 9.99757 1.61533 9.20537L0.8953 9.89931ZM0.820883 8.0409C0.365433 8.5951 0.398873 9.38421 0.8953 9.89931L1.61533 9.20537C1.46974 9.0543 1.4615 8.8364 1.59346 8.67582L0.820883 8.0409ZM17.6247 8.50001C17.6247 10.845 15.7237 12.746 13.3787 12.746V13.746C16.276 13.746 18.6247 11.3973 18.6247 8.50001H17.6247ZM13.3787 4.254C15.7237 4.254 17.6247 6.155 17.6247 8.50001H18.6247C18.6247 5.60272 16.276 3.254 13.3787 3.254V4.254ZM9.13272 8.50001C9.13272 6.155 11.0337 4.254 13.3787 4.254V3.254C10.4814 3.254 8.13272 5.60272 8.13272 8.50001H9.13272ZM10.2821 11.4051C9.56885 10.6452 9.13272 9.62408 9.13272 8.50001H8.13272C8.13272 9.88827 8.67262 11.1515 9.55295 12.0895L10.2821 11.4051ZM13.203 12.7459C12.0421 12.7459 11.0017 12.2328 10.295 11.4194L9.54008 12.0752C10.4286 13.098 11.7404 13.7459 13.203 13.7459V12.7459ZM13.2768 12.7452C13.2522 12.7457 13.2276 12.7459 13.203 12.7459V13.7459C13.2339 13.7459 13.2647 13.7456 13.2955 13.745L13.2768 12.7452ZM13.3787 12.746C13.351 12.746 13.3233 12.7458 13.2957 12.7452L13.2766 13.745C13.3106 13.7457 13.3446 13.746 13.3787 13.746V12.746Z" fill="white"/>
</svg>
