<svg width="160" height="32" viewBox="0 0 160 32" fill="none" xmlns="http://www.w3.org/2000/svg">
<path d="M0.257613 5.34672C0.0909223 5.18733 0 4.99896 0 4.78162V0.927364C0 0.68104 0.0909223 0.478184 0.257613 0.304308C0.424304 0.144921 0.636456 0.0579834 0.848608 0.0579834H27.504C27.7313 0.0579834 27.9283 0.144921 28.095 0.304308C28.2617 0.478184 28.3526 0.68104 28.3526 0.912874V4.78162C28.3526 4.99896 28.2768 5.18733 28.1102 5.34672C27.9435 5.52059 27.7465 5.59304 27.4889 5.59304H0.848608C0.636456 5.60753 0.439458 5.52059 0.257613 5.34672ZM11.2441 31.66C11.0774 31.5006 10.9864 31.2977 10.9864 31.0949V14.1854C10.9864 13.9391 11.0774 13.7507 11.2441 13.5913C11.4108 13.4464 11.6229 13.3595 11.8351 13.3595H23.0943C23.3519 13.3595 23.564 13.4464 23.7307 13.6058C23.8974 13.7797 23.9883 13.9681 23.9883 14.1709V18.4454C23.9883 18.6917 23.8974 18.8946 23.7307 19.054C23.564 19.2278 23.3367 19.3003 23.0943 19.3003H18.2905C18.0632 19.3003 17.8662 19.3727 17.6995 19.5321C17.5329 19.6915 17.4419 19.8799 17.4419 20.1262V31.0804C17.4419 31.2977 17.351 31.4861 17.1843 31.6455C17.0176 31.8049 16.7903 31.8918 16.5479 31.8918H11.8502C11.6078 31.9063 11.4108 31.8194 11.2441 31.66Z" fill="white"/>
<path d="M40.8693 30.3704C39.0963 29.3851 37.687 28.0375 36.6414 26.3278C35.5958 24.618 35.0654 22.7633 35.0654 20.7637V12.0554C35.0654 11.8236 35.1564 11.6207 35.323 11.4758C35.4897 11.3309 35.6867 11.2585 35.914 11.2585H40.3238C40.5662 11.2585 40.7784 11.3309 40.9299 11.4758C41.0815 11.6207 41.1572 11.8236 41.1572 12.0554V20.7637C41.1572 22.2561 41.6876 23.5312 42.7484 24.56C43.8091 25.5888 45.1123 26.1104 46.6429 26.1104C47.8249 26.1104 48.9311 25.8786 49.9312 25.3859C50.9314 24.9078 51.7345 24.2557 52.3255 23.4298C52.9165 22.6039 53.2196 21.72 53.2196 20.7637V0.825912C53.2196 0.623056 53.3105 0.43469 53.4772 0.260814C53.6439 0.101428 53.856 0.0144897 54.1137 0.0144897H58.4325C58.6749 0.0144897 58.8871 0.101428 59.0689 0.260814C59.2356 0.420201 59.3265 0.608567 59.3265 0.825912V20.7637C59.3265 22.8068 58.781 24.6614 57.7051 26.3567C56.6292 28.052 55.129 29.3851 53.2044 30.3704C51.2799 31.3557 49.0978 31.8483 46.658 31.8483C44.5668 31.8483 42.6423 31.3557 40.8693 30.3704ZM35.323 5.28873C35.1564 5.12935 35.0654 4.94098 35.0654 4.72364V0.811422C35.0654 0.565098 35.1564 0.376732 35.323 0.231835C35.4897 0.0869381 35.6867 0 35.914 0H40.3238C40.5662 0 40.7784 0.0724484 40.9299 0.231835C41.0815 0.376732 41.1572 0.579587 41.1572 0.811422V4.72364C41.1572 4.92649 41.0815 5.11486 40.9299 5.28873C40.7784 5.44812 40.5662 5.53506 40.3238 5.53506H35.914C35.6867 5.53506 35.4897 5.46261 35.323 5.28873Z" fill="white"/>
<path d="M87.3766 31.8193C87.3766 31.8193 87.2553 31.6744 86.9977 31.3556C85.7551 29.501 83.7245 26.4871 80.9059 22.3141C78.0873 18.1411 75.9658 14.9678 74.5414 12.7799C74.3444 12.5625 74.2231 12.4611 74.1625 12.4611C74.1019 12.4611 74.0564 12.5191 74.0413 12.6495C74.0261 12.7654 74.011 12.8668 74.011 12.9248L74.1019 18.3149C74.1019 18.5323 74.0261 18.7206 73.8594 18.88C73.6928 19.0539 73.4958 19.1264 73.2381 19.1264H68.6163C68.3586 19.1264 68.1465 19.0539 67.9646 18.8945C67.7828 18.7496 67.707 18.5468 67.707 18.3004V0.883846C67.707 0.637522 67.798 0.434666 67.9646 0.26079C68.1313 0.0869137 68.3586 0.0144653 68.6163 0.0144653H73.2988C73.5261 0.0144653 73.7079 0.101403 73.8746 0.289769L85.4217 18.6772C85.7097 19.1988 85.9521 19.4451 86.134 19.4451C86.2855 19.4451 86.3764 19.1843 86.3764 18.6772L86.3158 0.883846C86.3158 0.637522 86.4067 0.434666 86.5734 0.26079C86.7553 0.0869137 86.9523 0.0144653 87.1644 0.0144653H92.2258C92.4834 0.0144653 92.6955 0.101403 92.8774 0.26079C93.0592 0.434666 93.135 0.637522 93.135 0.883846V30.9934C93.135 31.2397 93.0441 31.4281 92.8774 31.5875C92.6955 31.7324 92.4834 31.8193 92.2258 31.8193H87.8312H87.7857H87.7403C87.4978 31.8193 87.3766 31.8193 87.3766 31.8193Z" fill="white"/>
<path d="M101.606 31.6599C101.424 31.5005 101.348 31.2977 101.348 31.0948V0.927339C101.348 0.681015 101.439 0.47816 101.606 0.318773C101.772 0.159387 101.985 0.0724487 102.197 0.0724487H107.334C107.561 0.0724487 107.758 0.159387 107.925 0.318773C108.092 0.492649 108.182 0.695505 108.182 0.927339V11.3744L117.835 0.565098C118.123 0.231835 118.472 0.0724487 118.881 0.0724487H125.67C126.018 0.0724487 126.231 0.130407 126.291 0.260814C126.352 0.376732 126.337 0.507139 126.246 0.623056L108.955 19.9668C108.455 20.5464 108.198 21.2708 108.198 22.1547V31.1093C108.198 31.3267 108.122 31.515 107.955 31.6744C107.788 31.8338 107.591 31.9208 107.334 31.9208H102.197C101.985 31.9063 101.788 31.8193 101.606 31.6599ZM119.002 31.6599C118.699 31.5295 118.457 31.3122 118.26 31.0514L113.229 24.1978C113.001 23.8645 112.895 23.5892 112.895 23.3863C112.895 23.111 113.017 22.8212 113.274 22.517C113.532 22.2416 113.82 21.9229 114.153 21.5461C114.486 21.1694 114.805 20.8072 115.123 20.4739L116.123 19.3437C116.32 19.0974 116.532 18.9815 116.79 18.9815C117.078 18.9815 117.305 19.1119 117.502 19.3872L126.049 30.9789C126.109 31.0948 126.14 31.2108 126.14 31.2977C126.14 31.6889 125.852 31.9063 125.291 31.9352H120.442C119.79 31.8773 119.305 31.7903 119.002 31.6599Z" fill="white"/>
<path d="M132.14 0.970833C132.08 0.854916 132.049 0.724509 132.049 0.608591C132.049 0.246349 132.292 0.0579834 132.762 0.0579834H137.277C137.823 0.0579834 138.156 0.101452 138.293 0.188391C138.429 0.275329 138.565 0.434715 138.702 0.637571L139.414 1.91266C139.641 2.33286 140.626 4.14407 142.414 7.31731C142.611 7.73752 142.702 8.08527 142.702 8.36057C142.702 8.69383 142.611 9.04159 142.414 9.40383L140.414 12.8958C140.247 13.2291 140.02 13.3885 139.702 13.3885C139.414 13.3885 139.202 13.2436 139.035 12.9393L132.14 0.970833Z" fill="white"/>
<path d="M143.187 31.6599C143.021 31.5005 142.93 31.2977 142.93 31.0948V20.6478C142.93 19.648 143.233 18.4163 143.854 16.9384C144.475 15.4749 145.415 13.6782 146.688 11.5482C147.127 10.7948 148.521 8.28806 150.87 4.05707L152.628 0.883834C152.749 0.63751 152.916 0.449144 153.098 0.289757C153.28 0.14486 153.583 0.0579224 154.007 0.0579224H158.568C159.144 0.0579224 159.417 0.217309 159.417 0.507102C159.417 0.62302 159.372 0.782406 159.281 0.956283L149.355 18.3149C149.037 18.8655 148.87 19.5176 148.84 20.271V23.4008V31.0803C148.84 31.2977 148.764 31.486 148.597 31.6454C148.446 31.8048 148.234 31.8918 147.976 31.8918H143.793C143.566 31.9062 143.369 31.8193 143.187 31.6599Z" fill="white"/>
</svg>
