<svg width="22" height="22" viewBox="0 0 22 22" fill="none" xmlns="http://www.w3.org/2000/svg">
<path d="M0.690807 3.6548C0.567344 3.54466 0.5 3.41449 0.5 3.26429V0.60079C0.5 0.430566 0.567344 0.290382 0.690807 0.170224C0.81427 0.060079 0.971406 0 1.12854 0H20.8715C21.0398 0 21.1857 0.060079 21.3092 0.170224C21.4327 0.290382 21.5 0.430566 21.5 0.590777V3.26429C21.5 3.41449 21.4439 3.54466 21.3204 3.6548C21.197 3.77496 21.051 3.82503 20.8602 3.82503H1.12854C0.971406 3.83504 0.825494 3.77496 0.690807 3.6548ZM8.82817 21.8387C8.7047 21.7286 8.63736 21.5884 8.63736 21.4482V9.76283C8.63736 9.59261 8.7047 9.46244 8.82817 9.35229C8.95163 9.25216 9.10876 9.19208 9.2659 9.19208H17.6053C17.7961 9.19208 17.9532 9.25216 18.0767 9.36231C18.2002 9.48247 18.2675 9.61264 18.2675 9.75282V12.7067C18.2675 12.8769 18.2002 13.0171 18.0767 13.1273C17.9532 13.2474 17.7849 13.2975 17.6053 13.2975H14.0473C13.8789 13.2975 13.733 13.3475 13.6096 13.4577C13.4861 13.5678 13.4188 13.698 13.4188 13.8682V21.4382C13.4188 21.5884 13.3514 21.7186 13.228 21.8287C13.1045 21.9388 12.9361 21.9989 12.7565 21.9989H9.27712C9.09754 22.0089 8.95163 21.9489 8.82817 21.8387Z" fill="#E8A3FF"/>
</svg>
