<svg width="55" height="24" viewBox="0 0 55 24" fill="none" xmlns="http://www.w3.org/2000/svg">
<path d="M8.756 23V3.608H8.18L5.172 10.712H0.884L5.46 0.599998H12.852V23H8.756ZM25.3368 23.448C22.6914 23.448 20.5688 22.7227 18.9688 21.272C17.3688 19.8 16.5688 17.5813 16.5688 14.616V8.984C16.5688 6.104 17.3688 3.91733 18.9688 2.424C20.5688 0.909332 22.6914 0.151999 25.3368 0.151999C28.0034 0.151999 30.1261 0.909332 31.7048 2.424C33.3048 3.91733 34.1048 6.104 34.1048 8.984V14.616C34.1048 17.5813 33.3048 19.8 31.7048 21.272C30.1261 22.7227 28.0034 23.448 25.3368 23.448ZM25.3368 19.8C26.9368 19.8 28.1101 19.3627 28.8568 18.488C29.6248 17.6133 30.0088 16.3653 30.0088 14.744V8.792C30.0088 7.14933 29.5821 5.912 28.7288 5.08C27.8968 4.22667 26.7661 3.8 25.3368 3.8C23.8648 3.8 22.7128 4.23733 21.8808 5.112C21.0701 5.98667 20.6648 7.21333 20.6648 8.792V14.744C20.6648 16.4293 21.0488 17.6987 21.8168 18.552C22.6061 19.384 23.7794 19.8 25.3368 19.8ZM46.0868 23.448C43.4414 23.448 41.3188 22.7227 39.7188 21.272C38.1188 19.8 37.3188 17.5813 37.3188 14.616V8.984C37.3188 6.104 38.1188 3.91733 39.7188 2.424C41.3188 0.909332 43.4414 0.151999 46.0868 0.151999C48.7534 0.151999 50.8761 0.909332 52.4548 2.424C54.0548 3.91733 54.8548 6.104 54.8548 8.984V14.616C54.8548 17.5813 54.0548 19.8 52.4548 21.272C50.8761 22.7227 48.7534 23.448 46.0868 23.448ZM46.0868 19.8C47.6868 19.8 48.8601 19.3627 49.6068 18.488C50.3748 17.6133 50.7588 16.3653 50.7588 14.744V8.792C50.7588 7.14933 50.3321 5.912 49.4788 5.08C48.6468 4.22667 47.5161 3.8 46.0868 3.8C44.6148 3.8 43.4628 4.23733 42.6308 5.112C41.8201 5.98667 41.4148 7.21333 41.4148 8.792V14.744C41.4148 16.4293 41.7988 17.6987 42.5668 18.552C43.3561 19.384 44.5294 19.8 46.0868 19.8Z" fill="#E8A3FF"/>
</svg>
