<svg width="34" height="25" viewBox="0 0 34 25" fill="none" xmlns="http://www.w3.org/2000/svg">
<path d="M28.2181 2.07236C26.0935 1.11316 23.8153 0.406455 21.4332 0.0016979C21.3898 -0.00611378 21.3465 0.013408 21.3241 0.0524526C21.0311 0.56523 20.7066 1.23419 20.4793 1.75999C17.9172 1.38257 15.3683 1.38257 12.8588 1.75999C12.6315 1.2225 12.2951 0.56523 12.0008 0.0524526C11.9785 0.0147108 11.9351 -0.00481107 11.8917 0.0016979C9.51099 0.405162 7.23272 1.11186 5.10685 2.07236C5.08845 2.08017 5.07268 2.0932 5.06221 2.11011C0.740822 8.46266 -0.442986 14.6591 0.13775 20.7787C0.140378 20.8086 0.157458 20.8372 0.181108 20.8554C3.03223 22.9157 5.79404 24.1664 8.50455 24.9954C8.54793 25.0085 8.5939 24.9929 8.6215 24.9577C9.26268 24.0962 9.83422 23.1877 10.3243 22.2324C10.3532 22.1764 10.3256 22.1101 10.2665 22.0879C9.35991 21.7495 8.49667 21.337 7.66629 20.8685C7.60061 20.8307 7.59535 20.7383 7.65577 20.694C7.83052 20.5652 8.00531 20.4311 8.17216 20.2958C8.20235 20.2711 8.24441 20.2658 8.27991 20.2815C13.7351 22.7322 19.641 22.7322 25.0319 20.2815C25.0674 20.2645 25.1094 20.2698 25.1409 20.2945C25.3078 20.4298 25.4826 20.5652 25.6586 20.694C25.7191 20.7383 25.7151 20.8307 25.6494 20.8685C24.8191 21.3461 23.9558 21.7495 23.0479 22.0866C22.9888 22.1088 22.9625 22.1764 22.9915 22.2324C23.492 23.1864 24.0636 24.0948 24.6929 24.9564C24.7192 24.9929 24.7665 25.0085 24.8099 24.9954C27.5335 24.1664 30.2953 22.9157 33.1464 20.8554C33.1714 20.8372 33.1872 20.8099 33.1898 20.7799C33.8848 13.705 32.0257 7.55944 28.2614 2.1114C28.2522 2.0932 28.2365 2.08017 28.2181 2.07236ZM11.1389 17.0525C9.49653 17.0525 8.14324 15.5688 8.14324 13.7467C8.14324 11.9246 9.47028 10.4409 11.1389 10.4409C12.8207 10.4409 14.1608 11.9376 14.1346 13.7467C14.1346 15.5688 12.8075 17.0525 11.1389 17.0525ZM22.2149 17.0525C20.5726 17.0525 19.2193 15.5688 19.2193 13.7467C19.2193 11.9246 20.5463 10.4409 22.2149 10.4409C23.8967 10.4409 25.2369 11.9376 25.2106 13.7467C25.2106 15.5688 23.8967 17.0525 22.2149 17.0525Z" fill="white"/>
</svg>
