<svg width="26" height="25" viewBox="0 0 26 25" fill="none" xmlns="http://www.w3.org/2000/svg">
<path d="M12.8335 25C5.93975 25 0.333496 19.3938 0.333496 12.5C0.333496 5.60625 5.93975 0 12.8335 0C19.7272 0 25.3335 5.60625 25.3335 12.5C25.3335 19.3938 19.7272 25 12.8335 25ZM22.4411 17.5018H17.5893C17.3752 18.8057 17.0815 19.9987 16.7135 21.0275C16.4628 21.7307 16.1768 22.3525 15.8557 22.8994C18.7198 22.0706 21.0893 20.0987 22.4411 17.5018ZM16.3147 12.5C16.3147 11.3297 16.2328 10.225 16.1163 9.16643H9.85156C9.73507 10.225 9.65311 11.3297 9.65311 12.5C9.65311 13.6712 9.73438 14.7766 9.85156 15.8351H16.1163C16.2342 14.7766 16.3147 13.6712 16.3147 12.5ZM11.9968 22.7116C12.3811 23.1671 12.6882 23.3155 12.9421 23.3288C12.9805 23.3288 13.0171 23.3233 13.0546 23.3225C13.3022 23.2975 13.6053 23.1451 13.971 22.7123C14.3733 22.2366 14.792 21.4607 15.146 20.4678C15.4484 19.6225 15.6998 18.6146 15.8951 17.5022H10.071C10.2663 18.6147 10.5195 19.6225 10.8211 20.4678C11.1765 21.4601 11.5951 22.235 11.9968 22.7116ZM10.1639 22.9898C9.81935 22.4218 9.51783 21.7687 9.25225 21.0265C8.88499 19.9983 8.59046 18.8046 8.37649 17.5007L3.22426 17.5006C4.63051 20.2037 7.14144 22.2255 10.1639 22.9898ZM1.99966 12.5C1.99966 13.6649 2.18712 14.7845 2.52542 15.8352H8.15354C8.0449 14.7742 7.98474 13.6571 7.98474 12.5C7.98474 11.343 8.0449 10.229 8.15354 9.16645H2.52542C2.18711 10.2171 1.99966 11.3351 1.99966 12.5ZM3.22542 7.49824H8.37676C8.5909 6.19279 8.88457 4.99752 9.25251 3.96779C9.51741 3.22632 9.81961 2.57565 10.1642 2.00998C7.14243 2.77395 4.63211 4.79654 3.22542 7.49824ZM13.971 2.28797C13.6077 1.85828 13.3076 1.70587 13.0615 1.67935C13.0209 1.67865 12.9818 1.67307 12.9428 1.67307C12.6889 1.68633 12.3811 1.83316 11.9974 2.28865C11.5951 2.76437 11.1771 3.53553 10.8224 4.52848C10.5209 5.37374 10.2661 6.38392 10.0708 7.49879H15.8976C15.7023 6.38392 15.4491 5.3737 15.1469 4.52848C14.7922 3.53482 14.3733 2.76458 13.971 2.28797ZM15.8576 2.1005C16.1787 2.64581 16.4624 3.26542 16.7139 3.96765C17.0819 4.99738 17.3772 6.19265 17.5912 7.49809H22.4399C21.0884 4.90269 18.721 2.92952 15.8576 2.1005ZM17.8123 9.16613C17.9217 10.2278 17.9818 11.3419 17.9818 12.4997C17.9818 13.6575 17.9217 14.7739 17.8123 15.8348H23.1391C23.4781 14.784 23.6649 13.6646 23.6649 12.4997C23.6649 11.3348 23.4781 10.2168 23.1391 9.16613H17.8123Z" fill="white"/>
</svg>
