<svg width="32" height="25" viewBox="0 0 32 25" fill="none" xmlns="http://www.w3.org/2000/svg">
<path d="M28.7239 6.22369C28.7434 6.49492 28.7434 6.76615 28.7434 7.03988C28.7434 15.3806 22.1393 25 10.0635 25V24.995C6.4962 25 3.00305 24.0176 0 22.1652C0.518708 22.2252 1.04002 22.2552 1.56262 22.2564C4.51887 22.2589 7.39061 21.3052 9.71635 19.5491C6.90701 19.4978 4.44347 17.7367 3.58286 15.1656C4.56697 15.3481 5.58099 15.3106 6.5469 15.0569C3.48405 14.4619 1.28052 11.8746 1.28052 8.86977C1.28052 8.84227 1.28052 8.81602 1.28052 8.78977C2.19313 9.27849 3.21495 9.54973 4.26017 9.57972C1.37542 7.72609 0.486208 4.03632 2.22823 1.15151C5.56149 5.09501 10.4795 7.49236 15.7588 7.74609C15.2297 5.55373 15.9525 3.25637 17.6582 1.71522C20.3024 -0.674629 24.4612 -0.552137 26.9468 1.98895C28.4171 1.71022 29.8264 1.1915 31.116 0.456549C30.6259 1.91771 29.6002 3.15888 28.2299 3.94758C29.5313 3.80009 30.8027 3.46511 32 2.95389C31.1186 4.22381 30.0084 5.32999 28.7239 6.22369Z" fill="white"/>
</svg>
